# xmcd
#
# Track frame offsets:
#	183
#	23665
#	43680
#	52580
#	70303
#	83875
#	107030
#	131570
#	148533
#	165475
#	177813
#	196593
#
# Disc length: 2805 seconds
#
# Revision: 1
# Processed by: cddbd v1.5.1PL2 Copyright (c) Steve Scherf et al.
# Submitted via: audiograbber 1.83.01
#
DISCID=920af30c
DTITLE=Bc And You - Backslider
DYEAR=1998
DGENRE=Blues
TTITLE0=You Can't Help What You Want
TTITLE1=Backslider
TTITLE2=The Chair
TTITLE3=Scrub Vibe
TTITLE4=Carol Ann
TTITLE5=Everyday I Get The Blues
TTITLE6=Deviation
TTITLE7=Anybody With The Blues Knows
TTITLE8=Dust My Broom
TTITLE9=I Don't Care
TTITLE10=Working Class Zero
TTITLE11=Cold Cold Beer
EXTD=
EXTT0=
EXTT1=
EXTT2=
EXTT3=
EXTT4=
EXTT5=
EXTT6=
EXTT7=
EXTT8=
EXTT9=
EXTT10=
EXTT11=
PLAYORDER=
